{"asset":{"version":"2.0","generator":"babylon.js glTF exporter for 3ds max 2017 v1.2.40","copyright":"2018 (c) BabylonJS"},"extensionsUsed":["KHR_lights"],"scene":0,"scenes":[{"nodes":[0,1,3],"extensions":{"KHR_lights":{"light":0}}}],"nodes":[{"skin":0,"mesh":0,"translation":[0.0,0.0,0.0],"rotation":[0.0,0.0,0.0,1.0],"scale":[1.0,1.0,1.0],"name":"default"},{"children":[2],"translation":[0.0,1.06695616,0.06587155],"rotation":[-0.0593773127,0.05937748,0.704610467,0.7046082],"scale":[1.0,1.0,1.0],"name":"Bone001"},{"translation":[7.80426264,9.536693E-07,-4.61936E-07],"rotation":[3.13916473E-07,1.71363354E-07,4.371134E-08,1.0],"scale":[1.0,1.0,1.0],"name":"Bone002"},{"translation":[0.0,0.0,0.0],"rotation":[0.0,0.0,0.0,1.0],"scale":[1.0,1.0,1.0],"name":"Default light"}],"meshes":[{"primitives":[{"attributes":{"POSITION":1,"NORMAL":2,"TEXCOORD_0":3,"JOINTS_0":4,"WEIGHTS_0":5},"indices":0,"mode":4,"material":0}],"name":"default"}],"accessors":[{"bufferView":0,"componentType":5123,"count":1092,"type":"SCALAR","name":"accessorIndices"},{"bufferView":1,"componentType":5126,"count":1092,"max":[3.499981,16.2826481,4.41572237],"min":[-3.50003767,-0.342526972,-5.663087],"type":"VEC3","name":"accessorPositions"},{"bufferView":1,"byteOffset":13104,"componentType":5126,"count":1092,"type":"VEC3","name":"accessorNormals"},{"bufferView":2,"componentType":5126,"count":1092,"type":"VEC2","name":"accessorUVs"},{"bufferView":3,"componentType":5123,"count":1092,"type":"VEC4","name":"accessorJoints"},{"bufferView":4,"componentType":5126,"count":1092,"type":"VEC4","name":"accessorWeights"},{"bufferView":5,"componentType":5126,"count":2,"type":"MAT4","name":"accessorInverseBindMatrices"},{"bufferView":6,"componentType":5126,"count":22,"max":[3.33333325],"min":[0.0],"type":"SCALAR","name":"accessorAnimationInput"},{"bufferView":7,"componentType":5126,"count":22,"type":"VEC3","name":"accessorAnimationPositions"},{"bufferView":8,"componentType":5126,"count":22,"type":"VEC4","name":"accessorAnimationRotations"},{"bufferView":7,"byteOffset":264,"componentType":5126,"count":22,"type":"VEC3","name":"accessorAnimationScales"}],"bufferViews":[{"buffer":0,"byteLength":2184,"name":"bufferViewScalar"},{"buffer":0,"byteOffset":2184,"byteLength":26208,"byteStride":12,"name":"bufferViewFloatVec3"},{"buffer":0,"byteOffset":28392,"byteLength":8736,"byteStride":8,"name":"bufferViewFloatVec2"},{"buffer":0,"byteOffset":37128,"byteLength":8736,"byteStride":8,"name":"bufferViewUnsignedShortVec4"},{"buffer":0,"byteOffset":45864,"byteLength":17472,"byteStride":16,"name":"bufferViewFloatVec4"},{"buffer":0,"byteOffset":63336,"byteLength":128,"name":"bufferViewFloatMat4"},{"buffer":0,"byteOffset":63464,"byteLength":88,"name":"bufferViewAnimationFloatScalar"},{"buffer":0,"byteOffset":63552,"byteLength":528,"name":"bufferViewAnimationFloatVec3"},{"buffer":0,"byteOffset":64080,"byteLength":352,"name":"bufferViewAnimationFloatVec4"}],"buffers":[{"uri":"kyarishake.bin","byteLength":64432}],"materials":[{"pbrMetallicRoughness":{"baseColorFactor":[1.0,1.0,1.0,1.0],"baseColorTexture":{"index":0,"texCoord":0},"metallicFactor":0.0,"roughnessFactor":0.7},"emissiveFactor":[0.0,0.0,0.0],"alphaMode":"BLEND","name":"palette"}],"textures":[{"sampler":0,"source":0,"name":"palette_baseColor.png"}],"images":[{"uri":"palette_baseColor.png"}],"samplers":[{"magFilter":9729,"minFilter":9987,"wrapS":10497,"wrapT":10497}],"animations":[{"channels":[{"sampler":0,"target":{"node":1,"path":"translation"}},{"sampler":1,"target":{"node":1,"path":"rotation"}},{"sampler":2,"target":{"node":1,"path":"scale"}}],"samplers":[{"input":7,"interpolation":"LINEAR","output":8},{"input":7,"interpolation":"LINEAR","output":9},{"input":7,"interpolation":"LINEAR","output":10}],"name":"All Animations"}],"skins":[{"inverseBindMatrices":6,"skeleton":1,"joints":[1,2],"name":"skeleton #0"}],"extensions":{"KHR_lights":{"lights":[{"color":[1.0,1.0,1.0],"intensity":1.0,"type":"ambient"}]}}}